<svg xmlns="http://www.w3.org/2000/svg" fill="#ffffff" xmlns:xlink="http://www.w3.org/1999/xlink" version="1.1" viewBox="323.8359235805424 39.39942039900683 141.1049112795411 69.09939646441504" style="width: 100%; height: 100%; z-index: 5;" width="141.1049112795411"  height="69.09939646441504" ><g fill="#ffffff"><g fill="#ffffff" transform="translate(370.27560336150873 73.94911863121435) scale(1)"><path fill-rule="nonzero" d="M3.516234-6.329221L1.758117-3.481071L2.742662-2.953636C4.887565-1.933929 7.208279-1.265844 9.001558-1.265844C9.177370-1.265844 9.880617-1.371331 11.111298-1.547143C12.834253-2.074578 14.135259-3.129448 14.943993-4.746915L15.014318-4.887565C15.401103-5.625974 15.576915-6.505032 15.576915-7.524740C15.576915-8.368636 15.401103-9.142207 15.049480-9.845454C14.486883-11.005811 13.502337-11.990357 12.131006-12.763928C11.111298-13.256201 10.548701-13.502337 10.443214-13.537500L9.564156-13.818798L9.107045-13.959448C7.208279-14.522045 6.012760-15.295616 5.555649-16.244999C5.450162-16.420811 5.379837-16.702110 5.379837-17.088895C5.379837-17.616331 5.450162-18.038279 5.625974-18.354740L5.661136-18.425064C6.047922-19.163473 6.610519-19.620584 7.384091-19.831558C7.559902-19.937045 7.946688-19.972207 8.614772-19.972207C9.950941-19.972207 11.779383-19.409610 14.064935-18.284415L14.627532-19.163473C12.412305-20.394155 10.372889-21.027077 8.509285-21.027077L7.102792-20.851265C6.047922-20.534804 5.239188-19.866720 4.676591-18.847012C4.430454-18.389902 4.324967-17.862467 4.324967-17.194383C4.324967-16.666947 4.430454-16.209837 4.641428-15.787889C5.204026-14.557207 6.575357-13.642987 8.790584-12.974902L9.247694-12.834253C11.955194-11.884870 14.522045-10.900324 14.522045-7.559902C14.522045-5.450162 13.502337-3.762370 11.849707-2.953636C11.005811-2.531688 10.056428-2.320714 9.036720-2.320714C7.208279-2.320714 5.309513-2.812987 3.305260-3.832695L3.340422-3.903019L3.938182-4.922727C6.118247-4.043669 7.806039-3.586558 9.001558-3.586558C10.759675-3.586558 12.025519-4.254643 12.763928-5.555649C13.080389-6.153409 13.256201-6.821493 13.256201-7.524740C13.256201-8.790584 12.693603-9.739967 11.568409-10.408052C10.935487-10.759675 10.372889-11.040974 9.845454-11.251948L8.896071-11.603571L8.438961-11.744220C5.872110-12.517792 4.219480-13.678149 3.481071-15.260454C3.199773-15.858214 3.059123-16.491136 3.059123-17.159220C3.059123-18.038279 3.199773-18.741525 3.516234-19.339285C4.219480-20.710616 5.309513-21.624837 6.751169-22.046785C7.067630-22.222597 7.665389-22.292921 8.614772-22.292921C10.759675-22.292921 13.678149-21.308376 15.823051-19.901882L16.385649-19.585421L14.486883-16.561460L13.959448-16.877921C12.271655-17.967954 10.091591-18.741525 8.579610-18.741525C7.454415-18.741525 7.173117-18.600876 6.891818-18.073441C6.716006-17.827305 6.645682-17.510844 6.645682-17.159220L6.716006-16.772434C6.821493-16.631785 7.067630-16.385649 7.489578-16.034025C7.806039-15.787889 8.474123-15.471428 9.458668-15.154967L9.950941-15.014318C13.080389-14.029772 15.084642-12.588116 16.034025-10.689350C16.561460-9.388344 16.842759-8.333474 16.842759-7.489578C16.842759-6.540195 16.631785-5.520487 16.209837-4.430454L16.069188-4.184318C15.049480-2.215227 13.502337-0.914221 11.427759-0.316461C10.689350-0.105487 9.880617 0 9.001558 0C6.329221 0 3.023961-1.054870 0.527435-2.742662L0-3.059123L3.094286-8.052175L3.621721-7.735714C5.309513-6.645682 7.489578-5.872110 9.001558-5.872110C9.950941-5.872110 10.548701-6.153409 10.794837-6.716006C10.900324-6.891818 10.935487-7.102792 10.935487-7.419253C10.935487-7.595065 10.900324-7.735714 10.830000-7.841201L10.794837-7.911526C10.478376-8.474123 9.634480-8.966396 8.192824-9.423506L7.770876-9.564156C4.606266-10.513539 2.496526-12.060681 1.406493-14.240746C0.984545-15.084642 0.773571-16.034025 0.773571-17.124058C0.773571-18.143766 0.984545-19.163473 1.406493-20.183181L1.511980-20.429317C2.531688-22.433571 4.078831-23.699415 6.153409-24.262012C6.751169-24.508148 7.595065-24.613635 8.614772-24.613635C11.181623-24.613635 14.135259-23.593928 17.546006-21.519350L16.877921-20.429317C13.748474-22.363246 10.970649-23.347791 8.579610-23.347791C8.403798-23.347791 7.700552-23.242304 6.469870-23.066493C4.746915-22.539058 3.445909-21.484188 2.637175-19.866720L2.566851-19.726071C2.215227-18.847012 2.039416-18.003116 2.039416-17.124058C2.039416-16.280162 2.215227-15.506590 2.566851-14.803344C3.445909-12.939740 5.274350-11.603571 8.122500-10.759675L8.227987-10.724513L8.579610-10.619026C10.443214-10.021266 11.462922-9.388344 11.920032-8.438961L11.990357-8.298311C12.131006-7.946688 12.201331-7.665389 12.201331-7.419253C12.201331-6.926980 12.131006-6.540195 11.955194-6.223734L11.920032-6.153409C11.568409-5.450162 11.005811-4.993052 10.197078-4.782078C10.021266-4.676591 9.634480-4.641428 9.001558-4.641428C7.735714-4.641428 6.223734-5.028214 4.500779-5.801786ZM21.214001 0L27.297085 0L27.297085-24.613635L26.031241-24.613635L26.031241-1.265844L22.479845-1.265844L22.479845-23.347791L23.640202-23.347791L23.640202-2.355877L24.906046-2.355877L24.906046-24.613635L21.214001-24.613635ZM47.421054-22.152272L48.686898-22.152272L48.686898-6.926980L31.281541-24.613635L33.039658-24.613635L47.421054-10.021266ZM44.994853-14.205584L44.994853-24.613635L51.113099-24.613635L51.113099 0L48.862710 0L34.270340-14.627532L34.270340-1.265844L35.395535-1.265844L35.395535-11.709058L36.696541-10.372889L36.696541 0L33.004496 0L33.004496-17.721818L49.108846-1.406493L49.249495-1.265844L49.847255-1.265844L49.847255-23.382954L46.260697-23.382954L46.260697-12.834253ZM30.613457 0L30.613457-23.593928L48.686898-5.344675L48.686898-3.481071L31.844139-20.569967L31.844139 0ZM64.767198 0C67.580185 0 69.830574-0.843896 72.960022-2.988799L73.206159-3.199773L73.206159-13.221038L64.274925-13.221038L64.274925-11.955194L71.975477-11.955194L71.975477-3.867857C68.986678-1.933929 67.158237-1.265844 64.767198-1.265844C60.829016-1.265844 57.207296-3.375584 55.238205-6.786331C54.253659-8.474123 53.761387-10.302565 53.761387-12.271655C53.761387-16.209837 55.871127-19.866720 59.281873-21.835811C60.969666-22.820356 62.798107-23.312629 64.767198-23.312629C67.545022-23.312629 70.182198-22.292921 72.186451-20.429317L72.678724-19.937045L73.557782-20.851265L73.311646-21.132564C73.206159-21.238051 73.100672-21.308376 73.030347-21.343538C70.779957-23.418116 67.826321-24.578473 64.767198-24.578473C60.301581-24.578473 56.433724-22.363246 54.183335-18.460227C53.058140-16.526298 52.495542-14.451720 52.495542-12.271655C52.495542-8.087337 54.886581-3.903019 58.684114-1.687792C60.547718-0.562597 62.587133 0 64.767198 0ZM64.767198-2.391039C66.841776-2.391039 68.459243-2.883312 70.041548-3.973344L70.850282-4.606266L70.850282-10.865162L64.274925-10.865162L64.274925-7.278604L67.193399-7.278604L67.193399-6.716006C66.454990-6.329221 65.646256-6.153409 64.767198-6.153409C62.551971-6.153409 60.582880-7.313766 59.492847-9.247694C58.930250-10.197078 58.648951-11.216785 58.648951-12.271655C58.648951-14.522045 59.809308-16.491136 61.743237-17.616331C62.692620-18.143766 63.712328-18.425064 64.767198-18.425064C66.068204-18.425064 67.263724-18.038279 68.283432-17.299870L69.408626-16.420811L71.940315-19.163473L71.483204-19.620584L70.568983-20.323830C68.705380-21.554512 66.771451-22.187434 64.767198-22.187434C61.145477-22.187434 57.980867-20.358993 56.187588-17.299870C55.308529-15.752727 54.851419-14.064935 54.851419-12.271655C54.851419-8.755422 56.750185-5.520487 59.844471-3.727208C61.356451-2.848149 63.009081-2.391039 64.767198-2.391039ZM64.767198-20.921590C66.630802-20.921590 68.318594-20.358993 69.830574-19.268960L70.111873-19.057986L69.267977-18.143766L69.021841-18.319577C67.720834-19.198636 66.279178-19.655746 64.767198-19.655746C62.059698-19.655746 59.668659-18.249253 58.367653-15.998863C57.699568-14.838506 57.383107-13.607824 57.383107-12.271655C57.383107-9.564156 58.754438-7.278604 61.110315-5.907273C62.270672-5.239188 63.501354-4.887565 64.767198-4.887565C65.857230-4.887565 66.947263-5.168863 68.107620-5.731461L68.459243-5.907273L68.459243-8.544448L65.540769-8.544448L65.540769-9.599318L69.584438-9.599318L69.584438-5.204026L69.338302-4.993052C68.037295-4.113993 66.490152-3.656883 64.767198-3.656883C61.672912-3.656883 58.824763-5.309513 57.277620-7.981850C56.504049-9.282857 56.117263-10.724513 56.117263-12.271655C56.117263-15.365941 57.769893-18.214090 60.442231-19.761233C61.778399-20.534804 63.220055-20.921590 64.767198-20.921590Z" fill="#ffffff"></path></g><g fill="#ffffff" fill-rule="nonzero" transform="translate(323.8359235805424 39.39942039900683) scale(0.6978671080291204)"><svg xmlns="http://www.w3.org/2000/svg" fill="#ffffff" width="52.646385192871094" height="99.01512145996094" viewBox="23.6769962310791 0.49287694692611694 52.646385192871094 99.01512145996094"><path d="M45.817 97.742c-10.633 0-19.361-3.311-22.113-7.956.567 5.413 10.25 9.722 22.113 9.722 11.862 0 21.545-4.309 22.112-9.722-2.752 4.646-11.481 7.956-22.112 7.956z" fill="#ffffff"></path><path d="M49.641 75.685l.002 6.869h-.885V69.53l-.139-.001c-1.14-.06-2.37-.146-3.602-.375a21.352 21.352 0 0 1-1.865-.401c-.094-.025-.185-.054-.278-.079v13.88h-.882v-6.869c-10.404.837-18.315 5.024-18.315 10.069 0 5.646 9.913 10.224 22.14 10.224S67.956 91.4 67.956 85.754c0-5.045-7.912-9.233-18.315-10.069zM66.815 4.661c-3.42-1.986-6.792-3.322-12.108-3.976S42.678.908 39.09 5.483a48.854 48.854 0 0 1 7.006.484c-.005.015-.014.028-.018.044L44.99 9.418a45.392 45.392 0 0 0-7.957-.326c-.105.272-.22.54-.311.821l-.125.393a61.43 61.43 0 0 1 7.844.83l-1.093 3.427c-3.354-.54-6.078-.705-7.881-.744l-.406 1.263a90.11 90.11 0 0 1 7.733 1.217l-1.086 3.404a86.89 86.89 0 0 0-7.755-1.177l-.42 1.304c1.787.346 4.378.879 7.613 1.634l-1.077 3.374c-3.326-.772-5.928-1.3-7.625-1.622l-.422 1.31c1.661.475 4.195 1.187 7.484 2.075l-1.075 3.367a533.74 533.74 0 0 1-7.49-2.079l-.414 1.288c1.515.598 3.991 1.514 7.343 2.551l-1.078 3.377c-3.286-1.019-5.753-1.926-7.352-2.554l-.394 1.227c1.345.706 3.751 1.855 7.189 3.069l-1.08 3.384c-3.259-1.145-5.661-2.248-7.208-3.038l-.361 1.124c1.144.786 3.462 2.21 7.021 3.635l-1.084 3.397c-3.033-1.197-5.275-2.418-6.775-3.352-.041.416-.067.83-.072 1.243 1.108.91 3.17 2.386 6.306 3.805l-1.091 3.418a35.275 35.275 0 0 1-4.378-2.291 14.333 14.333 0 0 0 4.361 6.238c.217.179.45.343.677.51 4.043 2.191 10.08 3.385 17.341 3.385.358 0 .721-.003 1.09-.009l1.333-3.838c-.341-.003-.697.004-1.032-.005-6.633-.174-11.958-1.296-16.122-2.72.023-.054.061-.098.079-.155l1.031-3.228c4.294 1.482 10.002 2.632 17.271 2.584l.476-1.368c-7.016-.401-12.72-1.609-17.167-3.034l1.081-3.386c4.403 1.417 10.148 2.635 17.292 2.954l.478-1.375c-6.928-.758-12.665-2.045-17.187-3.405l1.079-3.381c4.493 1.352 10.24 2.644 17.208 3.36.029.002.057.013.086.017l.479-1.378c-6.827-1.16-12.59-2.537-17.188-3.833l1.079-3.377c4.53 1.276 10.204 2.633 16.887 3.762.135.023.261.063.383.114l.498-1.434a1.728 1.728 0 0 1-.356-.046 756.541 756.541 0 0 1-16.822-4.244l1.074-3.368a757.462 757.462 0 0 0 16.571 4.178c.383.092.702.306.937.586a4.844 4.844 0 0 1 3.629-1.652c.542 0 1.079.091 1.595.271a4.82 4.82 0 0 1 3.224 5.038 3.961 3.961 0 0 0-2.632-3.321 3.973 3.973 0 0 0-5.057 2.446L52.495 60.05c-11.052.261-17.858-1.988-21.504-4.756.007.086.279 1.784 3.792 5.819.836.961 3.302 3.005 4.367 3.693.531.35 1.084.648 1.645.936a18.914 18.914 0 0 0 3.474 1.278c.588.146 1.179.288 1.766.38 1.182.219 2.348.305 3.512.365 1.156.029 2.302.009 3.432-.07a47.054 47.054 0 0 0 3.343-.374l2.196-.405.759-2.181 1.521-4.378.685-1.967a14.156 14.156 0 0 0 4.809-6.849l9.36-29.104c2.418-7.515-1.964-13.787-8.837-17.776zm-4.823 24.457a1.766 1.766 0 0 1-2.217 1.148 262.473 262.473 0 0 0-16.265-4.601l1.076-3.369a265.881 265.881 0 0 1 16.26 4.605 1.764 1.764 0 0 1 1.146 2.217zm1.186-4.7a1.768 1.768 0 0 1-2.298.978 106.943 106.943 0 0 0-15.703-4.95l1.082-3.389A110.765 110.765 0 0 1 62.2 22.122a1.765 1.765 0 0 1 .978 2.296zm1.175-4.7a1.764 1.764 0 0 1-2.365.798 65.495 65.495 0 0 0-15.145-5.291l1.086-3.403a69.456 69.456 0 0 1 15.624 5.531 1.767 1.767 0 0 1 .8 2.365zm1.163-4.703a1.762 1.762 0 0 1-2.419.611A46.579 46.579 0 0 0 48.511 10l.93-2.917c.055-.171.074-.343.076-.514a50.253 50.253 0 0 1 15.388 6.026 1.766 1.766 0 0 1 .611 2.42z" fill="#ffffff"></path></svg></g><g fill="#ffffff" transform="translate(419.4149068600835 101.42841155032153) scale(1)"><path fill-rule="nonzero" d="M6.512312-25.083136L15.422013-8.337191L20.431484-17.604711L23.115129 0L21.826980 0L19.751627-13.597135L15.422013-5.581982L5.045253-25.083136ZM21.540724-25.083136L24.295933-25.083136L28.088818 0L24.295933 0L24.188587-0.536729L24.224369-0.536729L21.361814-19.286462L22.363709-21.182905L22.685746-19.035989L25.405173-1.323932L26.585977-1.323932L25.977684-5.438854L23.294039-22.900438L23.186693-23.759204L22.327927-23.759204L21.147123-21.576506L21.039777-21.326032L17.890967-15.457795L15.529359-10.985054L14.777939-12.344767L16.459690-15.457795ZM15.457795-3.077246L19.035989-9.875814L19.071771-9.625340L19.358026-7.728898L15.457795-0.322037L4.508524-20.932431L1.502841-1.323932L5.152598-1.323932L6.369184-9.339085L6.655440-8.802356L7.406860-7.406860L6.261838 0L0 0L3.792885-24.975790L4.007577-24.617970L14.276992-5.259944ZM4.079140-2.254262L2.790991-2.254262L5.116817-17.211110L14.276992 0L12.809932 0L5.796673-13.203534ZM29.245148 0L45.525928 0L45.525928-6.154493L35.435422-6.154493L35.435422-8.301409L34.147273-8.301409L34.147273-4.866343L44.237778-4.866343L44.237778-1.288150L30.533297-1.288150L30.533297-24.975790L29.245148-24.975790ZM31.678319-12.058512L41.303660-12.058512L41.303660-13.346661L32.966469-13.346661L32.966469-23.687640L44.058868-23.687640L44.058868-20.145229L36.759354-20.145229L36.759354-18.857079L45.347018-18.857079L45.347018-24.975790L31.678319-24.975790ZM31.678319-2.397390L42.985410-2.397390L42.985410-3.685539L32.966469-3.685539L32.966469-9.625340L43.844177-9.625340L43.844177-15.779833L35.435422-15.779833L35.435422-21.326032L42.806501-21.326032L42.806501-22.614182L34.147273-22.614182L34.147273-14.491683L42.556027-14.491683L42.556027-10.913490L31.678319-10.913490Z" fill="#ffffff"></path></g><g fill="#ffffff" transform="translate(394.6865679520015 101.42841155032153) scale(1)"><path fill-rule="nonzero" d="M14.369365-25.021282L1.465532-9.937023L1.537022-6.076597L14.941280-6.076597L14.941280-2.108937L13.654471-2.108937L13.654471-4.789788L0.250213-4.789788L0.250213-6.326810L0.178723-10.401704L12.689364-25.021282ZM16.156599-23.269792L3.967660-8.971917L3.967660-8.400002L21.053622-8.400002L21.053622-4.789788L17.371919-4.789788L17.443408 0L11.188088 0L11.188088-3.931916L12.474896-3.931916L12.474896-1.322553L16.120855-1.322553L16.085110-6.076597L19.766813-6.076597L19.766813-7.113193L2.680852-7.113193L2.680852-9.436598L15.906386-24.985537L17.443408-24.985537L17.443408-11.760003L16.156599-11.760003ZM13.654471-9.508087L13.654471-16.478301L12.296173-14.905535L8.793193-10.794896L11.188088-10.794896L11.188088-11.974471L12.474896-13.475748L12.474896-9.508087L6.005108-9.508087L12.331918-16.942982L14.941280-19.981281L14.941280-10.794896L21.053622-10.794896L21.053622-9.508087Z" fill="#ffffff"></path></g></g></svg>