<svg xmlns="http://www.w3.org/2000/svg" fill="#ffffff" viewBox="23.6769962310791 0.49287694692611694 52.646385192871094 99.01512145996094" width="52.646385192871094"  height="99.01512145996094" ><path d="M45.817 97.742c-10.633 0-19.361-3.311-22.113-7.956.567 5.413 10.25 9.722 22.113 9.722 11.862 0 21.545-4.309 22.112-9.722-2.752 4.646-11.481 7.956-22.112 7.956z" fill="#ffffff"></path><path d="M49.641 75.685l.002 6.869h-.885V69.53l-.139-.001c-1.14-.06-2.37-.146-3.602-.375a21.352 21.352 0 0 1-1.865-.401c-.094-.025-.185-.054-.278-.079v13.88h-.882v-6.869c-10.404.837-18.315 5.024-18.315 10.069 0 5.646 9.913 10.224 22.14 10.224S67.956 91.4 67.956 85.754c0-5.045-7.912-9.233-18.315-10.069zM66.815 4.661c-3.42-1.986-6.792-3.322-12.108-3.976S42.678.908 39.09 5.483a48.854 48.854 0 0 1 7.006.484c-.005.015-.014.028-.018.044L44.99 9.418a45.392 45.392 0 0 0-7.957-.326c-.105.272-.22.54-.311.821l-.125.393a61.43 61.43 0 0 1 7.844.83l-1.093 3.427c-3.354-.54-6.078-.705-7.881-.744l-.406 1.263a90.11 90.11 0 0 1 7.733 1.217l-1.086 3.404a86.89 86.89 0 0 0-7.755-1.177l-.42 1.304c1.787.346 4.378.879 7.613 1.634l-1.077 3.374c-3.326-.772-5.928-1.3-7.625-1.622l-.422 1.31c1.661.475 4.195 1.187 7.484 2.075l-1.075 3.367a533.74 533.74 0 0 1-7.49-2.079l-.414 1.288c1.515.598 3.991 1.514 7.343 2.551l-1.078 3.377c-3.286-1.019-5.753-1.926-7.352-2.554l-.394 1.227c1.345.706 3.751 1.855 7.189 3.069l-1.08 3.384c-3.259-1.145-5.661-2.248-7.208-3.038l-.361 1.124c1.144.786 3.462 2.21 7.021 3.635l-1.084 3.397c-3.033-1.197-5.275-2.418-6.775-3.352-.041.416-.067.83-.072 1.243 1.108.91 3.17 2.386 6.306 3.805l-1.091 3.418a35.275 35.275 0 0 1-4.378-2.291 14.333 14.333 0 0 0 4.361 6.238c.217.179.45.343.677.51 4.043 2.191 10.08 3.385 17.341 3.385.358 0 .721-.003 1.09-.009l1.333-3.838c-.341-.003-.697.004-1.032-.005-6.633-.174-11.958-1.296-16.122-2.72.023-.054.061-.098.079-.155l1.031-3.228c4.294 1.482 10.002 2.632 17.271 2.584l.476-1.368c-7.016-.401-12.72-1.609-17.167-3.034l1.081-3.386c4.403 1.417 10.148 2.635 17.292 2.954l.478-1.375c-6.928-.758-12.665-2.045-17.187-3.405l1.079-3.381c4.493 1.352 10.24 2.644 17.208 3.36.029.002.057.013.086.017l.479-1.378c-6.827-1.16-12.59-2.537-17.188-3.833l1.079-3.377c4.53 1.276 10.204 2.633 16.887 3.762.135.023.261.063.383.114l.498-1.434a1.728 1.728 0 0 1-.356-.046 756.541 756.541 0 0 1-16.822-4.244l1.074-3.368a757.462 757.462 0 0 0 16.571 4.178c.383.092.702.306.937.586a4.844 4.844 0 0 1 3.629-1.652c.542 0 1.079.091 1.595.271a4.82 4.82 0 0 1 3.224 5.038 3.961 3.961 0 0 0-2.632-3.321 3.973 3.973 0 0 0-5.057 2.446L52.495 60.05c-11.052.261-17.858-1.988-21.504-4.756.007.086.279 1.784 3.792 5.819.836.961 3.302 3.005 4.367 3.693.531.35 1.084.648 1.645.936a18.914 18.914 0 0 0 3.474 1.278c.588.146 1.179.288 1.766.38 1.182.219 2.348.305 3.512.365 1.156.029 2.302.009 3.432-.07a47.054 47.054 0 0 0 3.343-.374l2.196-.405.759-2.181 1.521-4.378.685-1.967a14.156 14.156 0 0 0 4.809-6.849l9.36-29.104c2.418-7.515-1.964-13.787-8.837-17.776zm-4.823 24.457a1.766 1.766 0 0 1-2.217 1.148 262.473 262.473 0 0 0-16.265-4.601l1.076-3.369a265.881 265.881 0 0 1 16.26 4.605 1.764 1.764 0 0 1 1.146 2.217zm1.186-4.7a1.768 1.768 0 0 1-2.298.978 106.943 106.943 0 0 0-15.703-4.95l1.082-3.389A110.765 110.765 0 0 1 62.2 22.122a1.765 1.765 0 0 1 .978 2.296zm1.175-4.7a1.764 1.764 0 0 1-2.365.798 65.495 65.495 0 0 0-15.145-5.291l1.086-3.403a69.456 69.456 0 0 1 15.624 5.531 1.767 1.767 0 0 1 .8 2.365zm1.163-4.703a1.762 1.762 0 0 1-2.419.611A46.579 46.579 0 0 0 48.511 10l.93-2.917c.055-.171.074-.343.076-.514a50.253 50.253 0 0 1 15.388 6.026 1.766 1.766 0 0 1 .611 2.42z" fill="#ffffff"></path></svg>